<?xml version="1.0" encoding="UTF-8" standalone="no"?>
<svg
   id="Layer_1"
   version="1.1"
   viewBox="0 0 132.2 118"
   sodipodi:docname="MH_logo_1.svg"
   inkscape:version="1.3.2 (091e20e, 2023-11-25)"
   xmlns:inkscape="http://www.inkscape.org/namespaces/inkscape"
   xmlns:sodipodi="http://sodipodi.sourceforge.net/DTD/sodipodi-0.dtd"
   xmlns="http://www.w3.org/2000/svg"
   xmlns:svg="http://www.w3.org/2000/svg">
  <sodipodi:namedview
     id="namedview1"
     pagecolor="#ffffff"
     bordercolor="#000000"
     borderopacity="0.25"
     inkscape:showpageshadow="2"
     inkscape:pageopacity="0.0"
     inkscape:pagecheckerboard="0"
     inkscape:deskcolor="#d1d1d1"
     inkscape:zoom="2"
     inkscape:cx="66.25"
     inkscape:cy="59"
     inkscape:window-width="1728"
     inkscape:window-height="967"
     inkscape:window-x="0"
     inkscape:window-y="38"
     inkscape:window-maximized="1"
     inkscape:current-layer="Layer_1" />
  <!-- Generator: Adobe Illustrator 29.4.0, SVG Export Plug-In . SVG Version: 2.1.0 Build 152)  -->
  <defs
     id="defs1">
    <style
       id="style1">
      .st0 {
        fill: #94a3b8;
      }

      .st1 {
        fill: #8b5cf6;
        fill-rule: evenodd;
      }
    </style>
  </defs>
  <path
     class="st1"
     d="M116.8,12c-6.7-7.4-16.1-12-26.5-12s-17.5,3.6-24,9.5C59.9,3.6,51.5,0,42.4,0S22.6,4.6,15.9,12c-6.4,7.1-10.4,16.7-10.4,27.3v51.7h25.7v-51.7c0-4,1.4-7.5,3.7-10.1,2-2.2,4.7-3.6,7.6-3.6s5.6,1.4,7.6,3.6c1.8,2,3.1,4.6,3.5,7.5,0,.8,0,1.7,0,2.5v21.6h.4v30h25.7v-51.7h-.1c0-.8,0-1.7,0-2.5.5-3,1.7-5.6,3.5-7.5,2-2.2,4.7-3.6,7.6-3.6s5.6,1.4,7.6,3.6c2.3,2.5,3.7,6.1,3.7,10.1v51.7h25.7v-51.7c0-10.6-4-20.2-10.4-27.3Z"
     id="path1" />
  <rect
     class="st0"
     y="95.9"
     width="132.2"
     height="22.1"
     id="rect1" />
</svg>
